HIERARCHY
ROOT Hips
{
  OFFSET -1050.89 95.0078 470.478
  CHANNELS 6 Xposition Yposition Zposition Zrotation Xrotation Yrotation
  JOINT RightUpLeg
  {
    OFFSET -8.9458 -8.66707 0.101652
    CHANNELS 3 Zrotation Xrotation Yrotation
    JOINT RightLeg
    {
      OFFSET 0 -44.4227 1.3727
      CHANNELS 3 Zrotation Xrotation Yrotation
      JOINT RightFoot
      {
        OFFSET 0.253549 -42.0924 -1.46059
        CHANNELS 3 Zrotation Xrotation Yrotation
        JOINT RightToes
        {
          OFFSET 0.04 -4.41509 8.4991
          CHANNELS 3 Zrotation Xrotation Yrotation
          End Site
          {
            OFFSET -0.08 -0.137448 9.77979
          }
        }
      }
    }
  }
  JOINT Spine
  {
    OFFSET 0 11.8905 0
    CHANNELS 3 Zrotation Xrotation Yrotation
    JOINT Spine1
    {
      OFFSET 0 25.6574 0.127663
      CHANNELS 3 Zrotation Xrotation Yrotation
      JOINT HEad
      {
        OFFSET 0 8.73416 0.011341
        CHANNELS 3 Zrotation Xrotation Yrotation
        End Site
        {
          OFFSET -0.29 12.7742 2.51395
        }
      }
      JOINT LeftShoulder1
      {
        OFFSET 8.99 -0.362252 -0.22
        CHANNELS 3 Zrotation Xrotation Yrotation
        JOINT LeftArm
        {
          OFFSET 10.2827 -0.00338 0.322123
          CHANNELS 3 Zrotation Xrotation Yrotation
          JOINT LeftForeArm
          {
            OFFSET 32.7669 0.099144 -1.42434
            CHANNELS 3 Zrotation Xrotation Yrotation
            JOINT LeftHand
            {
              OFFSET 27.5643 0.085362 1.02216
              CHANNELS 3 Zrotation Xrotation Yrotation
              End Site
              {
                OFFSET 16.7443 -0.6 1.50291
              }
            }
          }
        }
      }
      JOINT RightShoulder
      {
        OFFSET -8.99 -0.362252 -0.22
        CHANNELS 3 Zrotation Xrotation Yrotation
        JOINT RightArm
        {
          OFFSET -10.2827 -0.00338 0.322123
          CHANNELS 3 Zrotation Xrotation Yrotation
          JOINT RightForeArm
          {
            OFFSET -32.8971 0.099144 -1.42434
            CHANNELS 3 Zrotation Xrotation Yrotation
            JOINT RightHand
            {
              OFFSET -27.4921 0.085362 1.02216
              CHANNELS 3 Zrotation Xrotation Yrotation
              End Site
              {
                OFFSET -16.6312 -0.6 1.50291
              }
            }
          }
        }
      }
    }
  }
  JOINT LeftUpLeg
  {
    OFFSET 8.9458 -8.66707 0.101652
    CHANNELS 3 Zrotation Xrotation Yrotation
    JOINT LeftLeg
    {
      OFFSET 0 -44.4227 1.3727
      CHANNELS 3 Zrotation Xrotation Yrotation
      JOINT LeftFoot
      {
        OFFSET -0.253549 -42.0924 -1.46059
        CHANNELS 3 Zrotation Xrotation Yrotation
        JOINT LeftToes
        {
          OFFSET -0.04 -4.41509 8.4991
          CHANNELS 3 Zrotation Xrotation Yrotation
          End Site
          {
            OFFSET 0.08 -0.047448 9.77979
          }
        }
      }
    }
  }
}
MOTION
Frames:	12
Frame Time:	0.0166667
-1055.3 92.4006 464.856 10.7487 35.6158 -159.409 -21.6156 -18.3767 -37.1709 155.843 76.5986 -166.394 -19.1326 2.65471 -0.896456 0.0462048 0.000533403 0.662642 2.84886 30.9289 -9.38719 0.0145858 0.0276662 0.00273945 28.8066 2.68097 -33.4888 -1.09332e-015 0 -0 -80.614 8.393 -62.76 -8.1092 32.7783 -93.5284 21.5979 24.5877 1.10012 28.7136 6.71328 -3.36845 77.1585 -51.7118 54.8047 -5.98222 39.7899 93.3896 15.6928 14.1944 -9.72968 24.8544 8.83241 -18.7849 -27.2962 4.02437 90.7243 93.6572 3.88083 -2.61285 -1.36059e-009 1.55987e-007 -4.8394e-009 
-1056.35 92.7004 465.772 8.52407 32.8728 -161.525 -21.5399 -19.7429 -38.6534 173.5 79.3527 175.629 -21.632 2.56861 -0.790855 0.0462048 0.000533403 0.662642 1.97342 30.9451 -8.64541 0.0118101 0.03076 0.0029397 29.2998 1.78611 -31.5118 -1.49089e-015 -7.95139e-016 1.59028e-015 -82.4447 3.80719 -64.097 -8.64195 33.1043 -92.8947 21.2994 31.5783 2.30552 29.9924 10.8362 -4.95496 86.2693 -47.7148 68.5426 -3.14429 43.4032 96.3058 15.2748 11.3888 -6.91111 20.2992 8.45303 -15.6956 -26.755 3.72389 90.734 90.9716 3.56045 -2.03746 -1.36059e-009 1.55987e-007 -4.83939e-009 
-1057.39 93.1312 466.638 6.11478 29.7386 -163.759 -21.565 -21.1416 -39.4983 -161.156 82.2691 150.322 -22.8811 2.24223 -0.62703 0.0462048 0.000533403 0.662642 0.84503 30.8207 -7.78556 0.0111201 0.03042 0.00068972 29.3932 0.977599 -28.896 8.01351e-016 4.96962e-016 -0 -84.7283 -2.19612 -65.8206 -9.70631 33.7092 -91.5068 20.0241 39.063 3.84064 29.8007 13.2545 -5.62616 92.685 -42.0395 77.4693 0.294143 47.2451 97.9454 14.456 8.73107 -3.53288 15.3685 7.35183 -12.4368 -25.7332 3.57199 89.9752 88.066 3.33981 -1.62332 -1.36059e-009 1.55987e-007 -4.83938e-009 
-1058.34 93.8318 467.491 3.18852 25.1985 -166.236 -22.2114 -22.9236 -38.6342 -80.7545 85.9816 70.5549 -21.028 1.27823 -0.605313 0.0462048 0.000533403 0.662642 -0.955489 30.227 -6.75119 0.0274999 0.09164 -0.0107707 27.8969 0.00596997 -24.3765 1.93815e-015 7.95139e-016 -0 -88.8733 -11.9967 -69.1894 -11.8989 35.8543 -87.5139 22.5994 25.7518 -4.41077 25.8737 10.8724 -3.56144 96.9599 -35.3401 77.8977 4.94197 50.834 97.1492 13.2302 8.03024 0.922794 9.42455 4.64065 -8.77403 -23.3433 4.13841 87.0013 84.28 3.45456 -1.51031 -1.36059e-009 1.55987e-007 -4.83939e-009 
-1059.15 94.7159 468.301 0.0221937 19.5378 -169.186 -22.9096 -25.6197 -36.78 -16.8878 78.5046 7.41323 -22.2618 0.414936 -0.694608 0.0462048 0.000533403 0.662642 -3.80597 27.8982 -5.02788 -0.0135099 -0.01096 0.00561033 25.3981 -0.0850139 -19.3349 -1.39149e-015 0 -0 -94.6628 -23.2916 -73.0647 -14.8922 40.1608 -81.7281 23.2017 23.9399 -9.03885 22.8071 8.73222 -2.33256 100.662 -27.5605 76.3588 11.0142 53.7268 94.0873 13.6617 10.4798 4.91679 4.24924 0.184438 -5.98141 -21.7762 4.80821 83.4411 79.6725 3.4552 -1.2214 -1.36058e-009 1.55987e-007 -4.83939e-009 
-1059.69 95.5597 469.019 -2.63441 14.8759 -172.005 -22.8871 -26.7815 -34.0355 0.0319957 69.173 -8.56474 -26.9825 -0.0496409 -0.797125 0.0462048 0.000533403 0.662642 -5.98354 25.787 -3.64716 -0.0178599 -0.01493 0.00326044 21.7019 0.16928 -13.889 6.4605e-016 -1.59028e-015 -3.97569e-016 -102.857 -34.8777 -78.7491 -22.1808 46.3501 -76.6566 23.3032 14.8742 -13.6938 20.4927 6.72814 -1.30499 102.633 -22.7302 74.9863 24.1236 54.7148 86.0384 14.5291 11.7543 8.61795 1.09468 -4.17295 -4.96662 -21.5772 5.74796 79.9418 74.221 3.05979 -0.538678 -1.3606e-009 1.55987e-007 -4.83939e-009 
-1059.96 96.5148 469.632 -4.77219 11.1086 -174.649 -22.6815 -26.4085 -30.536 10.9108 59.3205 -18.4208 -31.5027 -0.35511 -1.10031 0.0462048 0.000533403 0.662642 -7.58715 23.9285 -2.53138 -0.0185112 -0.0164078 0.00326044 16.8267 0.430931 -8.30732 -2.98177e-016 -1.59028e-015 -3.97569e-016 -114.665 -45.5945 -87.9465 -33.9667 53.2417 -69.3228 23.5864 15.8894 -14.7886 18.8687 5.00605 -0.750805 103.56 -19.4206 73.6678 32.5855 54.5485 80.7074 17.5278 23.1909 -3.41205 -0.59223 -8.1372 -5.27365 -22.0693 6.84039 76.5812 67.9346 2.41372 0.225101 -1.36059e-009 1.55987e-007 -4.83939e-009 
-1059.96 97.4435 470.049 -6.39623 8.12642 -177.069 -22.3698 -24.7599 -26.4649 17.0991 50.2768 -23.3968 -35.1377 -0.324391 -1.35153 0.0462048 0.000533403 0.662642 -8.70528 22.3388 -1.65767 -0.0175546 -0.0166255 0.00326044 10.9201 0.264572 -2.93402 -4.76773e-016 3.18055e-015 1.05604e-016 -132.027 -53.996 -103.036 -51.8213 59.1616 -56.5998 23.7265 11.6425 -16.6338 17.7283 3.57857 -0.718189 103.903 -16.8724 72.2742 37.4962 54.4158 77.968 17.8313 22.1691 0.622606 -1.11143 -11.6135 -6.6709 -23.0406 8.20348 73.7585 60.6073 1.46952 0.989994 -1.36059e-009 1.55987e-007 -4.83939e-009 
-1059.75 98.5205 470.239 -7.52818 5.82948 -179.228 -22.6733 -22.1649 -22.0034 21.3114 42.4303 -26.5594 -31.7735 -0.54198 -1.43668 0.0462048 0.000533403 0.662642 -9.44943 21.013 -0.992034 -0.0159548 -0.0155 0.00326044 5.6905 -0.203103 1.70176 -9.93923e-017 6.36111e-015 -0 -147.33 -57.0149 -116.792 -66.392 61.829 -44.8224 24.0979 12.8458 -16.9736 16.9655 2.4241 -0.886791 103.964 -14.9499 70.9006 39.9903 54.5631 76.8538 19.3695 27.3612 -5.56336 -0.992725 -14.234 -8.98038 -23.5166 9.47534 71.3698 52.1396 0.675109 1.36746 -1.3606e-009 1.55987e-007 -4.8394e-009 
-1059.43 99.3961 470.141 -8.20866 4.13554 178.898 -22.8515 -18.8463 -17.0827 24.5261 34.6391 -29.0427 -31.3298 -0.685603 -1.48253 0.0462048 0.000533403 0.662642 -9.94293 19.5391 -0.611438 -0.0146768 -0.01166 0.00326044 1.22765 -0.438003 5.76474 -4.96962e-016 0 7.95139e-016 -157.949 -57.9234 -126.616 -76.6102 62.5879 -35.9756 24.2403 10.7992 -18.0858 16.6523 1.92628 -1.32745 103.743 -13.4182 69.6204 41.1481 54.9183 76.7804 19.133 25.741 -2.12258 -0.863025 -16.4755 -11.3974 -23.4629 11.6473 69.7631 42.5076 -0.295155 1.53564 -1.36058e-009 1.55987e-007 -4.83938e-009 
-1059.07 100.158 469.793 -8.4908 2.96774 177.309 -23.3533 -15.0996 -11.7527 27.7029 26.8661 -31.6859 -31.0009 -0.848355 -1.54707 0.0462048 0.000533403 0.662642 -10.2339 17.9914 -0.488749 -0.0146771 -0.00568998 0.00326044 -2.47097 -0.446126 9.37241 -1.98785e-016 0 1.19271e-015 -164.877 -58.347 -133.3 -83.3271 62.6173 -29.8613 24.5668 11.9499 -18.5276 16.6068 2.11558 -1.89978 103.483 -12.1919 68.6296 41.5017 55.3192 77.1972 19.5303 27.8902 -5.10133 -0.856312 -18.2157 -13.9829 -22.7476 14.5131 69.7289 31.7518 -1.03383 1.30008 -1.36059e-009 1.55987e-007 -4.8394e-009 
-1058.74 100.92 469.274 -8.47138 2.25721 175.996 -24.1689 -11.118 -5.93303 30.8551 17.9523 -34.5087 -30.5708 -0.980601 -1.60062 0.0462048 0.000533403 0.662642 -10.4359 16.4201 -0.619288 -0.0146774 -9.99801e-005 0.00326044 -5.4242 -0.226792 12.6097 3.97569e-016 -3.18055e-015 -0 -169.129 -58.9701 -137.714 -87.4305 62.3162 -25.9601 24.543 10.6048 -19.0433 16.7224 2.80663 -2.58135 103.228 -11.2074 67.8228 41.4899 55.7041 77.8813 19.3879 26.281 -2.62397 0.155273 -19.181 -16.5559 -22.0277 19.4155 73.3893 9.52557 -1.69135 0.430241 -1.36059e-009 1.55987e-007 -4.8394e-009 
